<svg id="svg" version="1.1" xmlns="http://www.w3.org/2000/svg" xmlns:xlink="http://www.w3.org/1999/xlink" width="400" height="400" viewBox="0, 0, 400,400"><g id="svgg"><path id="path0" d="M139.258 84.646 C 133.218 85.479,126.728 90.921,124.080 97.373 C 123.265 99.358,122.283 189.063,123.076 189.063 C 123.200 189.063,133.131 179.221,145.147 167.192 C 168.232 144.081,168.172 144.133,171.739 144.154 C 174.787 144.173,174.938 144.278,181.793 151.104 C 186.722 156.012,187.940 157.031,188.877 157.031 C 189.898 157.031,220.341 127.278,226.164 120.590 L 227.452 119.109 223.986 115.818 C 221.738 113.683,220.655 112.395,220.905 112.151 C 221.583 111.488,253.108 100.725,253.557 101.002 C 254.016 101.286,253.929 102.204,252.930 107.617 C 252.612 109.336,251.648 114.697,250.786 119.531 C 248.407 132.872,247.996 134.931,247.635 135.313 C 247.309 135.659,242.977 132.368,241.045 130.307 C 240.524 129.752,239.985 129.297,239.847 129.297 C 239.709 129.297,229.236 139.686,216.575 152.384 C 186.734 182.311,189.541 181.085,177.919 169.261 L 171.476 162.705 162.265 172.075 C 157.199 177.229,146.277 188.246,137.994 196.558 L 122.934 211.670 123.137 214.917 C 123.883 226.852,133.730 234.037,148.633 233.520 L 152.148 233.398 152.344 213.933 C 152.531 195.297,152.571 194.444,153.291 193.919 C 155.254 192.483,168.548 192.591,170.010 194.054 L 170.898 194.943 171.094 214.171 L 171.289 233.398 175.098 233.459 L 178.906 233.520 178.906 211.731 C 178.906 183.238,177.811 186.133,188.590 186.133 L 195.769 186.133 196.713 187.229 L 197.656 188.325 197.656 210.978 L 197.656 233.632 201.529 233.565 C 204.925 233.507,205.426 233.410,205.590 232.782 C 205.693 232.388,205.790 219.028,205.805 203.094 C 205.837 170.873,205.681 172.677,208.492 171.897 C 210.372 171.375,219.674 171.366,221.540 171.884 C 224.175 172.616,224.004 170.601,224.219 203.478 L 224.414 233.398 228.125 233.454 L 231.836 233.509 232.031 191.916 L 232.227 150.323 233.323 149.380 C 234.406 148.448,245.857 147.912,248.652 148.663 C 250.654 149.201,250.572 147.528,250.781 191.992 L 250.977 233.398 255.078 233.319 C 264.203 233.143,270.903 229.147,274.436 221.775 C 276.641 217.172,276.598 218.546,276.478 157.227 L 276.367 100.586 275.499 98.285 C 273.364 92.632,269.161 88.206,263.673 85.836 L 260.742 84.570 200.586 84.528 C 167.500 84.504,139.902 84.558,139.258 84.646 M150.506 94.926 C 156.391 96.743,155.765 97.238,147.559 97.253 L 140.234 97.266 140.234 98.828 L 140.234 100.391 143.329 100.391 C 146.089 100.391,146.555 100.500,147.626 101.402 C 149.469 102.952,149.159 103.125,144.531 103.125 L 140.234 103.125 140.234 104.688 L 140.234 106.250 144.531 106.250 C 149.198 106.250,149.385 106.351,147.697 107.969 C 146.706 108.918,146.172 109.080,143.400 109.270 L 140.234 109.487 140.270 110.896 C 140.303 112.183,140.712 112.674,144.983 116.567 L 149.661 120.829 150.709 119.762 L 151.758 118.695 148.272 115.463 L 144.785 112.231 146.336 111.983 C 148.275 111.673,150.951 109.456,151.620 107.604 C 152.062 106.383,152.255 106.250,153.594 106.250 C 155.065 106.250,155.078 106.236,155.078 104.688 C 155.078 103.132,155.072 103.125,153.554 103.125 C 152.195 103.125,151.983 102.991,151.601 101.895 C 150.994 100.155,150.969 100.181,153.125 100.331 L 155.078 100.466 155.078 99.061 C 155.078 97.294,155.359 97.302,157.112 99.121 C 160.474 102.611,162.860 111.277,160.645 111.951 C 156.407 113.240,152.528 117.435,151.753 121.568 C 151.453 123.164,150.904 123.426,147.852 123.428 C 136.820 123.431,129.000 111.944,133.157 101.841 C 135.638 95.812,143.381 92.725,150.506 94.926 M163.672 116.246 C 163.672 116.372,162.354 117.803,160.742 119.424 C 157.565 122.623,157.420 122.928,158.598 123.937 C 159.647 124.835,159.715 124.817,161.312 123.257 L 162.695 121.905 162.577 127.163 L 162.458 132.422 164.041 132.422 L 165.625 132.422 165.625 127.168 L 165.625 121.914 166.934 123.262 C 168.437 124.809,168.628 124.848,169.824 123.850 C 171.058 122.821,171.035 122.771,167.785 119.543 C 164.589 116.368,164.400 115.962,166.661 117.124 C 176.342 122.102,171.447 136.969,161.306 133.391 C 152.136 130.155,152.549 116.107,161.816 116.031 C 162.837 116.023,163.672 116.119,163.672 116.246 M165.234 267.188 C 165.234 271.484,165.164 275.000,165.078 275.000 C 164.992 275.000,164.024 274.395,162.925 273.656 C 152.538 266.666,139.661 278.869,143.177 292.369 C 145.749 302.242,157.262 307.002,163.889 300.932 C 165.671 299.300,165.556 299.278,165.700 301.270 L 165.820 302.930 169.205 302.930 L 172.591 302.930 172.721 301.332 C 172.793 300.453,172.796 290.654,172.728 279.555 L 172.605 259.375 168.920 259.375 L 165.234 259.375 165.234 267.188 M302.344 281.152 L 302.344 302.930 306.250 302.930 L 310.156 302.930 310.156 292.560 L 310.156 282.190 311.621 280.790 C 315.817 276.778,320.806 277.609,321.854 282.494 C 322.080 283.550,322.266 288.580,322.266 293.672 L 322.266 302.930 326.001 302.930 L 329.736 302.930 329.614 290.820 L 329.492 278.711 328.320 276.575 C 325.474 271.386,318.550 270.288,312.590 274.081 C 311.458 274.801,310.447 275.391,310.344 275.391 C 310.241 275.391,310.156 271.787,310.156 267.383 L 310.156 259.375 306.250 259.375 L 302.344 259.375 302.344 281.152 M338.281 260.315 C 334.098 261.816,334.539 267.768,338.894 268.586 C 344.533 269.643,346.820 262.507,341.549 260.304 C 340.046 259.676,340.063 259.676,338.281 260.315 M55.078 264.160 L 55.078 267.578 61.133 267.578 L 67.188 267.578 67.187 285.254 L 67.187 302.930 71.288 302.930 L 75.389 302.930 75.390 285.254 L 75.391 267.578 81.445 267.578 L 87.500 267.578 87.500 264.160 L 87.500 260.742 71.289 260.742 L 55.078 260.742 55.078 264.160 M219.586 261.510 C 214.240 263.495,211.714 266.948,211.727 272.248 C 211.745 278.988,214.747 282.056,223.828 284.612 C 230.872 286.594,232.428 287.823,232.413 291.396 C 232.390 297.279,222.492 298.932,213.774 294.510 C 212.536 293.883,211.479 293.367,211.426 293.364 C 211.372 293.362,211.328 295.036,211.328 297.084 L 211.328 300.809 213.184 301.616 C 226.218 307.284,240.861 301.457,240.802 290.625 C 240.767 284.086,237.357 280.770,228.126 278.300 C 221.911 276.637,219.922 275.117,219.922 272.031 C 219.922 266.619,229.177 265.094,237.195 269.184 L 238.672 269.938 238.672 266.459 L 238.672 262.980 237.362 262.358 C 233.090 260.331,223.938 259.894,219.586 261.510 M281.120 263.932 C 280.977 264.076,280.859 266.097,280.859 268.424 L 280.859 272.656 278.711 272.656 L 276.563 272.656 276.563 275.781 L 276.563 278.906 278.465 278.906 L 280.368 278.906 280.568 287.598 C 280.877 301.031,282.339 303.271,290.820 303.305 C 296.961 303.329,296.875 303.385,296.875 299.359 C 296.875 296.646,296.777 296.079,296.367 296.419 C 295.422 297.204,292.814 297.375,291.319 296.750 C 288.706 295.658,288.493 294.921,288.343 286.457 L 288.210 278.933 292.640 278.822 L 297.070 278.711 297.057 275.781 L 297.044 272.852 292.663 272.741 L 288.281 272.631 288.281 268.151 L 288.281 263.672 284.831 263.672 C 282.933 263.672,281.263 263.789,281.120 263.932 M117.773 272.442 C 113.212 273.396,113.281 273.324,113.281 277.139 C 113.281 278.970,113.363 280.469,113.462 280.469 C 113.562 280.469,114.525 280.121,115.603 279.696 C 123.087 276.746,129.688 278.280,129.688 282.969 L 129.688 284.766 124.459 284.766 C 114.734 284.766,110.814 287.515,110.814 294.336 C 110.814 303.194,121.136 306.759,128.797 300.547 L 130.056 299.527 130.308 301.104 L 130.560 302.681 134.047 302.805 L 137.534 302.930 137.419 291.406 C 137.290 278.391,137.264 278.266,134.128 275.125 C 131.160 272.154,124.429 271.049,117.773 272.442 M188.867 272.401 C 181.255 274.921,177.248 282.096,178.578 290.820 C 180.191 301.403,190.655 306.142,204.004 302.334 L 205.469 301.916 205.469 298.573 C 205.469 295.535,205.406 295.256,204.785 295.527 C 195.496 299.577,187.459 297.668,186.201 291.113 L 185.957 289.844 196.342 289.844 L 206.727 289.844 206.574 285.645 C 206.202 275.487,198.022 269.369,188.867 272.401 M251.748 272.608 C 247.926 273.548,248.047 273.400,248.047 277.133 L 248.047 280.391 250.879 279.397 C 258.364 276.768,264.447 278.518,264.452 283.301 L 264.453 284.766 259.249 284.766 C 249.983 284.766,246.023 287.277,245.440 293.522 C 244.632 302.175,254.627 306.746,262.506 301.326 C 264.727 299.799,264.823 299.808,265.185 301.576 L 265.435 302.801 268.876 302.865 L 272.317 302.930 272.194 291.406 C 272.061 278.971,272.096 279.196,269.772 276.053 C 267.015 272.323,259.073 270.805,251.748 272.608 M102.344 273.025 C 100.766 273.861,99.386 275.091,98.155 276.758 L 97.290 277.930 97.278 275.293 L 97.266 272.656 93.555 272.656 L 89.844 272.656 89.843 287.793 L 89.843 302.930 93.749 302.930 L 97.655 302.930 97.656 293.107 L 97.656 283.284 99.029 282.079 C 101.642 279.785,104.309 278.940,106.782 279.623 L 108.203 280.015 108.203 276.377 C 108.203 273.421,108.087 272.695,107.585 272.503 C 106.384 272.042,103.693 272.309,102.344 273.025 M336.328 287.793 L 336.328 302.930 340.039 302.930 L 343.750 302.930 343.750 287.793 L 343.750 272.656 340.039 272.656 L 336.328 272.656 336.328 287.793 M197.032 279.259 C 197.845 280.048,198.532 281.214,198.792 282.246 C 199.573 285.347,199.969 285.156,192.773 285.156 L 186.328 285.156 186.328 284.167 C 186.328 278.727,193.221 275.566,197.032 279.259 M163.281 279.408 L 165.039 280.273 165.051 286.719 C 165.066 294.481,165.090 294.359,163.326 295.518 C 157.264 299.502,150.781 295.497,150.781 287.769 C 150.781 280.152,156.721 276.179,163.281 279.408 M129.883 292.188 L 129.883 295.117 128.003 296.374 C 122.953 299.749,117.105 297.281,118.423 292.330 C 119.038 290.019,121.492 289.097,126.758 289.198 L 129.883 289.258 129.883 292.188 M264.432 292.090 C 264.392 297.633,256.836 300.437,253.762 296.048 C 251.069 292.204,254.311 289.190,261.230 289.103 L 264.453 289.063 264.432 292.090 " stroke="none" fill="#228f44" fill-rule="evenodd"></path><path id="path1" d="M0.000 200.000 L 0.000 400.000 200.000 400.000 L 400.000 400.000 400.000 200.000 L 400.000 0.000 200.000 0.000 L 0.000 0.000 0.000 200.000 M264.586 86.033 C 270.324 88.773,274.974 94.426,276.151 100.093 C 276.451 101.540,276.546 119.333,276.472 160.157 L 276.367 218.164 275.417 220.313 C 271.559 229.041,265.508 233.058,255.566 233.491 L 250.781 233.699 250.781 193.070 C 250.781 149.492,250.812 150.378,249.271 149.331 C 247.810 148.339,236.796 148.068,234.635 148.971 C 232.343 149.929,232.422 148.370,232.422 192.604 L 232.422 233.594 228.327 233.594 L 224.233 233.594 224.128 203.677 L 224.023 173.760 222.927 172.818 C 221.484 171.576,209.406 171.351,207.412 172.529 C 205.811 173.474,205.871 172.264,205.865 204.199 L 205.859 233.594 201.660 233.594 L 197.461 233.594 197.573 211.912 C 197.693 188.748,197.614 187.571,195.882 186.782 C 193.703 185.790,181.354 186.188,180.256 187.287 L 179.297 188.246 179.297 210.920 L 179.297 233.594 175.195 233.594 L 171.094 233.594 171.094 215.064 C 171.094 191.226,171.995 193.359,161.918 193.359 C 151.266 193.359,152.344 190.942,152.344 214.824 L 152.344 233.594 146.947 233.594 C 137.799 233.594,133.546 232.192,128.966 227.669 C 124.314 223.074,121.164 213.935,123.267 211.133 C 124.189 209.905,171.222 162.891,171.530 162.891 C 171.681 162.891,174.667 165.788,178.166 169.330 C 185.481 176.734,186.469 177.322,190.267 176.534 L 192.383 176.094 215.935 152.598 C 228.889 139.675,239.566 129.030,239.662 128.942 C 239.759 128.854,240.850 129.740,242.087 130.911 C 245.433 134.079,247.273 135.386,247.613 134.836 C 248.040 134.145,253.516 103.935,253.516 102.271 C 253.516 100.795,253.692 100.761,244.124 104.076 C 239.514 105.673,232.578 108.072,228.711 109.407 C 219.918 112.443,220.310 111.891,224.182 115.783 C 225.972 117.583,227.370 119.257,227.288 119.503 C 226.988 120.405,189.699 157.422,189.097 157.416 C 188.175 157.407,188.072 157.319,181.507 150.917 C 174.946 144.518,173.891 143.865,170.799 144.289 C 168.011 144.671,167.737 144.920,144.727 167.958 L 122.852 189.860 122.744 146.590 C 122.667 115.833,122.763 102.550,123.077 100.656 C 124.225 93.711,130.693 86.524,137.229 84.930 C 138.829 84.540,152.188 84.450,200.391 84.503 L 261.523 84.570 264.586 86.033 M173.047 281.250 L 173.047 303.125 169.336 303.125 L 165.625 303.125 165.579 301.855 C 165.553 301.157,165.556 300.447,165.584 300.276 C 165.662 299.812,164.350 300.598,163.524 301.510 C 160.900 304.410,153.099 304.245,148.668 301.196 C 139.871 295.144,140.703 278.003,150.025 273.238 C 154.616 270.890,160.918 271.289,164.160 274.131 C 164.808 274.699,164.844 274.333,164.844 267.053 L 164.844 259.375 168.945 259.375 L 173.047 259.375 173.047 281.250 M310.465 267.383 C 310.362 274.665,310.492 276.335,311.048 274.885 C 312.008 272.383,320.510 270.864,324.219 272.532 C 329.323 274.828,330.078 277.421,330.078 292.645 L 330.078 303.152 326.074 303.041 L 322.070 302.930 321.875 292.383 C 321.738 285.010,321.533 281.581,321.194 280.987 C 319.348 277.764,315.510 277.638,312.130 280.692 L 310.547 282.122 310.547 292.624 L 310.547 303.125 306.445 303.125 L 302.344 303.125 302.344 281.250 L 302.344 259.375 306.461 259.375 L 310.578 259.375 310.465 267.383 M342.604 260.651 C 346.392 263.203,344.910 268.750,340.440 268.750 C 337.145 268.750,335.147 267.051,335.169 264.269 C 335.198 260.581,339.439 258.518,342.604 260.651 M232.282 260.740 C 233.961 261.062,236.075 261.631,236.979 262.005 L 238.623 262.684 238.745 266.337 C 238.891 270.688,239.083 270.396,236.813 269.276 C 230.452 266.138,222.241 266.519,220.576 270.029 C 218.843 273.680,221.390 276.423,228.089 278.122 C 239.053 280.902,243.363 287.057,240.222 295.451 C 237.409 302.971,224.620 306.089,213.561 301.951 L 211.328 301.116 211.328 297.010 C 211.328 294.751,211.460 292.963,211.621 293.036 C 211.782 293.109,212.800 293.635,213.884 294.206 C 220.683 297.787,229.657 297.551,231.702 293.736 C 233.943 289.558,231.736 287.110,223.576 284.723 C 214.891 282.183,211.798 279.262,211.422 273.242 C 210.827 263.713,219.779 258.348,232.282 260.740 M87.891 264.258 L 87.891 267.969 81.641 267.969 L 75.391 267.969 75.391 285.547 L 75.391 303.125 71.289 303.125 L 67.188 303.125 67.188 285.547 L 67.188 267.969 60.938 267.969 L 54.688 267.969 54.688 264.258 L 54.688 260.547 71.289 260.547 L 87.891 260.547 87.891 264.258 M288.587 268.262 L 288.697 272.656 292.982 272.656 L 297.266 272.656 297.266 275.781 L 297.266 278.906 292.946 278.906 L 288.626 278.906 288.747 286.752 L 288.867 294.597 290.181 295.770 C 291.534 296.978,293.776 297.168,296.387 296.296 C 297.253 296.007,297.266 296.052,297.266 299.350 L 297.266 302.698 295.801 303.104 C 292.034 304.150,285.990 303.434,283.645 301.664 C 281.054 299.708,280.697 298.180,280.473 288.086 L 280.273 279.102 278.223 278.983 L 276.172 278.865 276.172 275.761 L 276.172 272.656 278.320 272.656 L 280.469 272.656 280.469 268.424 C 280.469 263.310,280.184 263.621,284.746 263.756 L 288.477 263.867 288.587 268.262 M127.148 271.890 C 136.090 273.167,137.572 275.951,137.801 291.895 L 137.962 303.125 134.220 303.125 L 130.478 303.125 130.228 301.563 C 129.938 299.746,129.925 299.739,128.792 300.830 C 121.784 307.576,109.905 302.763,110.650 293.480 C 111.165 287.065,114.672 284.726,124.023 284.560 L 129.492 284.463 129.616 283.444 C 130.020 280.104,127.146 278.302,121.911 278.615 C 118.937 278.792,117.562 279.145,113.965 280.656 C 113.341 280.918,113.281 280.614,113.281 277.201 L 113.281 273.459 115.453 272.828 C 117.340 272.280,121.142 271.682,123.633 271.543 C 124.063 271.519,125.645 271.676,127.148 271.890 M199.090 272.715 C 204.228 274.637,208.066 282.477,206.900 288.672 L 206.643 290.039 197.764 289.914 C 185.370 289.741,185.334 289.754,187.303 293.879 C 189.092 297.626,198.474 298.491,204.395 295.453 L 205.469 294.902 205.469 298.584 L 205.469 302.266 203.613 302.699 C 190.423 305.782,180.854 301.885,178.735 292.566 C 175.538 278.512,186.365 267.954,199.090 272.715 M264.258 272.346 C 267.405 273.136,269.604 274.897,271.232 277.930 C 272.028 279.413,272.076 280.090,272.189 291.309 L 272.308 303.125 268.980 303.125 C 265.426 303.125,264.844 302.799,264.844 300.807 C 264.844 299.740,264.641 299.784,263.162 301.171 C 259.675 304.440,251.589 304.521,248.048 301.321 C 243.858 297.536,244.464 289.619,249.187 286.436 C 251.294 285.016,252.996 284.683,258.789 284.558 C 264.945 284.424,265.099 284.332,263.913 281.494 C 262.437 277.963,254.483 277.442,248.766 280.502 C 248.091 280.863,248.047 280.659,248.047 277.173 L 248.047 273.459 250.255 272.817 C 254.478 271.590,260.445 271.389,264.258 272.346 M108.283 272.772 C 108.641 273.335,108.678 276.587,108.350 278.572 L 108.114 279.996 105.860 279.792 C 103.188 279.549,100.653 280.599,98.792 282.718 L 97.656 284.012 97.656 293.568 L 97.656 303.125 93.750 303.125 L 89.844 303.125 89.844 287.891 L 89.844 272.656 93.652 272.656 L 97.461 272.655 97.331 274.952 L 97.201 277.250 99.505 275.009 C 102.472 272.123,107.118 270.940,108.283 272.772 M344.048 288.002 L 344.150 303.152 340.141 303.041 L 336.133 302.930 336.051 287.779 L 335.970 272.629 339.958 272.740 L 343.945 272.852 344.048 288.002 M190.820 278.012 C 188.901 278.472,185.706 283.443,186.503 284.732 C 186.707 285.063,197.203 285.229,198.186 284.917 C 198.792 284.724,198.884 284.415,198.713 283.138 C 198.203 279.336,194.724 277.077,190.820 278.012 M155.664 279.143 C 152.392 280.928,151.024 283.382,151.002 287.502 C 150.959 295.652,157.448 299.515,163.574 294.986 L 164.844 294.048 164.844 287.290 L 164.844 280.532 163.382 279.629 C 161.482 278.455,157.397 278.198,155.664 279.143 M120.938 290.048 C 117.981 291.591,117.495 294.136,119.733 296.373 C 121.575 298.216,125.103 298.164,127.824 296.254 L 129.492 295.084 129.607 292.268 L 129.722 289.453 125.896 289.456 C 123.247 289.457,121.722 289.639,120.938 290.048 M255.598 290.210 C 251.119 292.243,252.866 297.656,258.001 297.656 C 262.080 297.656,264.453 295.545,264.453 291.916 L 264.453 289.453 260.840 289.462 C 258.143 289.468,256.814 289.658,255.598 290.210 " stroke="none" fill="#e7e6e3" fill-rule="evenodd"></path><path id="path2" d="M143.533 94.528 C 128.101 96.794,128.410 118.790,143.930 122.831 C 148.731 124.082,151.322 123.536,151.696 121.195 C 152.228 117.868,155.724 113.876,159.473 112.318 L 160.938 111.708 160.938 109.250 C 160.938 105.952,159.734 102.544,157.699 100.082 C 155.787 97.767,155.564 97.674,155.397 99.121 C 155.282 100.120,155.132 100.204,153.265 100.312 L 151.257 100.429 151.664 101.757 C 152.032 102.954,152.231 103.098,153.673 103.203 C 156.189 103.387,156.159 105.990,153.640 106.174 C 152.213 106.277,151.976 106.430,151.769 107.373 C 151.433 108.901,149.021 111.239,147.224 111.777 C 145.194 112.386,145.297 112.666,148.642 115.625 C 151.872 118.482,151.945 118.645,150.586 119.922 L 149.609 120.839 148.549 119.892 C 147.966 119.371,146.604 118.136,145.522 117.148 C 144.440 116.159,142.799 114.681,141.875 113.862 C 140.347 112.509,140.206 112.230,140.313 110.777 L 140.430 109.180 143.417 109.066 C 145.942 108.971,146.562 108.807,147.421 108.011 C 149.106 106.449,148.757 106.250,144.336 106.250 L 140.234 106.250 140.234 104.688 L 140.234 103.125 144.378 103.125 C 147.995 103.125,148.491 103.047,148.284 102.507 C 148.154 102.167,148.047 101.820,148.047 101.736 C 148.047 101.107,145.353 100.391,142.988 100.391 L 140.234 100.391 140.234 98.828 L 140.234 97.266 146.852 97.266 C 150.492 97.266,153.561 97.117,153.674 96.935 C 154.093 96.258,147.244 93.885,145.747 94.189 C 145.616 94.216,144.619 94.369,143.533 94.528 " stroke="none" fill="#d1d74c" fill-rule="evenodd"></path><path id="path3" d="M252.982 101.044 C 253.226 101.222,253.522 101.719,253.640 102.148 C 253.810 102.764,253.840 102.730,253.783 101.984 C 253.743 101.463,253.447 100.967,253.125 100.880 C 252.738 100.775,252.689 100.831,252.982 101.044 M159.904 116.555 C 153.497 118.286,153.057 128.424,159.228 132.151 C 161.860 133.741,163.065 133.952,162.769 132.770 C 162.639 132.254,162.507 129.752,162.474 127.209 L 162.415 122.585 161.116 123.844 L 159.818 125.103 158.641 124.172 C 157.037 122.903,157.074 122.783,159.954 119.929 C 161.780 118.119,162.351 117.323,162.004 117.072 C 161.671 116.830,161.724 116.787,162.178 116.932 C 162.539 117.047,163.044 116.888,163.301 116.578 C 163.876 115.885,162.422 115.875,159.904 116.555 M165.234 116.533 C 165.234 116.609,166.465 117.933,167.969 119.477 C 171.011 122.598,171.124 122.906,169.722 124.223 L 168.741 125.145 167.384 123.829 C 166.638 123.106,165.928 122.613,165.808 122.734 C 165.687 122.855,165.877 123.243,166.231 123.597 C 166.682 124.048,166.756 124.384,166.478 124.718 C 165.997 125.298,165.688 131.643,166.141 131.642 C 166.318 131.641,166.198 131.904,165.876 132.227 C 165.554 132.549,164.838 132.813,164.286 132.813 C 163.733 132.813,163.281 133.003,163.281 133.236 C 163.281 133.794,166.755 133.453,168.221 132.750 C 169.333 132.217,171.035 129.616,171.319 128.016 C 171.403 127.539,171.587 126.552,171.726 125.823 C 171.887 124.985,171.837 124.586,171.592 124.738 C 171.364 124.879,171.249 124.561,171.315 123.967 C 171.430 122.912,170.785 121.094,170.295 121.094 C 170.140 121.094,169.916 120.725,169.798 120.273 C 169.672 119.788,169.403 119.565,169.141 119.727 C 168.880 119.887,168.612 119.673,168.490 119.206 C 168.323 118.569,165.234 116.033,165.234 116.533 M158.357 120.224 C 157.905 120.595,157.423 121.217,157.286 121.607 C 157.135 122.035,156.850 122.200,156.565 122.024 C 156.199 121.797,156.198 121.697,156.562 121.576 C 156.820 121.490,157.031 121.179,157.031 120.885 C 157.031 120.592,157.339 120.172,157.715 119.953 C 158.820 119.310,159.250 119.491,158.357 120.224 M155.738 123.340 C 155.640 123.716,155.559 123.408,155.559 122.656 C 155.559 121.904,155.640 121.597,155.738 121.973 C 155.836 122.349,155.836 122.964,155.738 123.340 M157.813 124.241 C 158.333 124.597,158.333 124.633,157.813 124.564 C 156.430 124.380,155.833 125.040,156.053 126.510 C 156.241 127.776,156.219 127.825,155.846 126.962 C 155.378 125.879,155.675 124.059,156.261 124.421 C 156.470 124.550,156.641 124.469,156.641 124.242 C 156.641 123.723,157.055 123.723,157.813 124.241 M158.984 128.902 C 158.984 128.618,159.076 128.477,159.188 128.589 C 159.300 128.701,159.223 129.214,159.018 129.728 C 158.812 130.243,158.632 130.414,158.619 130.109 C 158.605 129.804,158.286 129.188,157.910 128.742 C 157.227 127.931,157.227 127.930,158.105 128.674 C 158.719 129.193,158.984 129.262,158.984 128.902 M239.844 129.028 C 239.844 129.096,240.415 129.667,241.113 130.298 L 242.383 131.445 241.236 130.176 C 240.166 128.992,239.844 128.727,239.844 129.028 M162.198 132.718 C 161.822 132.843,158.984 131.731,158.984 131.459 C 158.984 131.365,159.784 131.584,160.761 131.946 C 161.738 132.308,162.385 132.655,162.198 132.718 M217.185 151.465 L 206.836 161.914 217.285 151.565 C 223.032 145.873,227.734 141.171,227.734 141.116 C 227.734 140.840,226.802 141.755,217.185 151.465 M203.311 165.332 L 200.195 168.555 203.418 165.439 C 205.190 163.725,206.641 162.275,206.641 162.216 C 206.641 161.931,206.205 162.339,203.311 165.332 M212.207 171.774 C 213.657 171.849,216.030 171.849,217.480 171.774 C 218.931 171.699,217.744 171.637,214.844 171.637 C 211.943 171.637,210.757 171.699,212.207 171.774 M158.319 193.259 C 159.993 193.333,162.630 193.332,164.178 193.258 C 165.726 193.184,164.355 193.124,161.133 193.125 C 157.910 193.126,156.644 193.186,158.319 193.259 M310.321 267.188 C 310.321 271.592,310.378 273.394,310.448 271.191 C 310.517 268.989,310.517 265.386,310.448 263.184 C 310.378 260.981,310.321 262.783,310.321 267.188 M54.830 264.258 C 54.831 266.406,54.897 267.235,54.976 266.100 C 55.055 264.965,55.054 263.207,54.974 262.194 C 54.894 261.181,54.829 262.109,54.830 264.258 M87.612 264.258 C 87.615 265.332,87.691 265.725,87.780 265.131 C 87.870 264.538,87.868 263.659,87.775 263.178 C 87.682 262.698,87.609 263.184,87.612 264.258 M280.616 268.359 C 280.616 270.830,280.680 271.841,280.757 270.605 C 280.835 269.370,280.835 267.349,280.757 266.113 C 280.680 264.878,280.616 265.889,280.616 268.359 M288.429 268.359 C 288.429 270.830,288.492 271.841,288.570 270.605 C 288.647 269.370,288.647 267.349,288.570 266.113 C 288.492 264.878,288.429 265.889,288.429 268.359 M123.344 271.761 C 123.830 271.854,124.533 271.851,124.907 271.753 C 125.280 271.655,124.883 271.579,124.023 271.583 C 123.164 271.587,122.858 271.667,123.344 271.761 M155.957 271.754 C 156.333 271.852,156.948 271.852,157.324 271.754 C 157.700 271.655,157.393 271.575,156.641 271.575 C 155.889 271.575,155.581 271.655,155.957 271.754 M192.485 271.761 C 192.971 271.854,193.674 271.851,194.048 271.753 C 194.421 271.655,194.023 271.579,193.164 271.583 C 192.305 271.587,191.999 271.667,192.485 271.761 M336.095 278.516 C 336.095 281.846,336.155 283.208,336.228 281.543 C 336.301 279.878,336.301 277.153,336.228 275.488 C 336.155 273.823,336.095 275.186,336.095 278.516 M108.331 275.586 C 108.333 277.090,108.404 277.657,108.488 276.847 C 108.573 276.036,108.571 274.806,108.485 274.112 C 108.399 273.419,108.330 274.082,108.331 275.586 M343.928 288.086 C 343.928 296.465,343.979 299.837,344.043 295.580 C 344.106 291.322,344.106 284.467,344.042 280.345 C 343.979 276.224,343.928 279.707,343.928 288.086 M288.438 284.766 C 288.438 288.096,288.498 289.458,288.572 287.793 C 288.645 286.128,288.645 283.403,288.572 281.738 C 288.498 280.073,288.438 281.436,288.438 284.766 M329.794 282.813 C 329.794 283.779,329.870 284.175,329.963 283.691 C 330.056 283.208,330.056 282.417,329.963 281.934 C 329.870 281.450,329.794 281.846,329.794 282.813 M310.327 292.773 C 310.327 298.574,310.381 301.002,310.448 298.168 C 310.515 295.334,310.515 290.588,310.448 287.621 C 310.382 284.654,310.327 286.973,310.327 292.773 M137.671 292.969 C 137.671 298.662,137.725 300.991,137.792 298.145 C 137.859 295.298,137.859 290.640,137.792 287.793 C 137.725 284.946,137.671 287.275,137.671 292.969 M198.828 284.147 C 198.828 284.451,198.608 284.789,198.340 284.898 C 198.048 285.015,198.127 285.107,198.535 285.125 C 198.969 285.145,199.219 284.870,199.219 284.375 C 199.219 283.945,199.131 283.594,199.023 283.594 C 198.916 283.594,198.828 283.843,198.828 284.147 M122.181 284.663 C 123.316 284.743,125.074 284.742,126.087 284.662 C 127.101 284.581,126.172 284.517,124.023 284.518 C 121.875 284.519,121.046 284.584,122.181 284.663 M206.766 286.719 C 206.766 288.115,206.837 288.687,206.923 287.988 C 207.010 287.290,207.010 286.147,206.923 285.449 C 206.837 284.751,206.766 285.322,206.766 286.719 M258.878 284.657 C 259.571 284.743,260.802 284.745,261.612 284.660 C 262.423 284.576,261.855 284.505,260.352 284.503 C 258.848 284.501,258.185 284.571,258.878 284.657 M322.024 291.602 C 322.025 294.180,322.088 295.184,322.165 293.832 C 322.241 292.481,322.240 290.372,322.163 289.145 C 322.086 287.918,322.023 289.023,322.024 291.602 M336.036 288.867 C 336.040 289.727,336.120 290.032,336.214 289.546 C 336.307 289.060,336.304 288.357,336.206 287.984 C 336.108 287.610,336.032 288.008,336.036 288.867 M125.488 289.347 C 126.294 289.431,127.612 289.431,128.418 289.347 C 129.224 289.263,128.564 289.194,126.953 289.194 C 125.342 289.194,124.683 289.263,125.488 289.347 M260.069 289.349 C 260.988 289.432,262.394 289.430,263.194 289.346 C 263.994 289.263,263.242 289.195,261.523 289.196 C 259.805 289.198,259.150 289.267,260.069 289.349 M336.088 295.313 C 336.088 297.998,336.150 299.097,336.227 297.754 C 336.303 296.411,336.303 294.214,336.227 292.871 C 336.150 291.528,336.088 292.627,336.088 295.313 M322.006 299.609 C 322.006 301.221,322.075 301.880,322.160 301.074 C 322.244 300.269,322.244 298.950,322.160 298.145 C 322.075 297.339,322.006 297.998,322.006 299.609 M193.652 297.541 C 194.136 297.634,194.927 297.634,195.410 297.541 C 195.894 297.448,195.498 297.372,194.531 297.372 C 193.564 297.372,193.169 297.448,193.652 297.541 M119.434 303.791 C 119.917 303.884,120.708 303.884,121.191 303.791 C 121.675 303.698,121.279 303.622,120.313 303.622 C 119.346 303.622,118.950 303.698,119.434 303.791 " stroke="none" fill="#8ac098" fill-rule="evenodd"></path><path id="path4" d="M151.595 95.437 C 152.216 95.913,154.688 97.203,154.688 97.051 C 154.688 96.790,152.229 95.316,151.790 95.314 C 151.593 95.313,151.506 95.369,151.595 95.437 M155.078 98.828 C 155.078 99.473,155.146 100.000,155.229 100.000 C 155.312 100.000,155.457 99.473,155.552 98.828 C 155.647 98.184,155.579 97.656,155.401 97.656 C 155.223 97.656,155.078 98.184,155.078 98.828 M156.250 98.560 C 156.250 98.627,156.821 99.198,157.520 99.829 L 158.789 100.977 157.642 99.707 C 156.572 98.524,156.250 98.258,156.250 98.560 M122.845 145.898 C 122.845 169.531,122.892 179.142,122.949 167.255 C 123.007 155.369,123.007 136.033,122.949 124.286 C 122.892 112.540,122.845 122.266,122.845 145.898 M155.169 104.688 C 155.169 105.439,155.249 105.747,155.347 105.371 C 155.446 104.995,155.446 104.380,155.347 104.004 C 155.249 103.628,155.169 103.936,155.169 104.688 M160.932 109.650 C 160.828 110.983,160.884 111.931,161.058 111.757 C 161.231 111.582,161.316 110.492,161.247 109.333 L 161.122 107.227 160.932 109.650 M141.706 109.267 C 142.408 109.354,143.463 109.353,144.050 109.263 C 144.637 109.174,144.063 109.103,142.773 109.105 C 141.484 109.108,141.004 109.181,141.706 109.267 M140.625 112.622 C 140.625 112.689,141.196 113.261,141.895 113.892 L 143.164 115.039 142.017 113.770 C 140.947 112.586,140.625 112.320,140.625 112.622 M222.640 114.551 C 223.598 115.571,224.433 116.406,224.495 116.406 C 224.789 116.406,224.479 116.056,222.754 114.437 L 220.898 112.695 222.640 114.551 M159.180 116.406 L 158.398 116.742 159.180 116.742 C 159.609 116.742,160.313 116.591,160.742 116.406 L 161.523 116.071 160.742 116.071 C 160.313 116.071,159.609 116.222,159.180 116.406 M167.480 117.803 C 167.964 118.161,168.359 118.718,168.359 119.041 C 168.359 119.540,168.258 119.549,167.676 119.098 C 167.117 118.665,167.128 118.728,167.735 119.439 C 168.252 120.045,168.619 120.192,168.943 119.924 C 169.472 119.485,169.922 119.793,169.922 120.596 C 169.922 120.908,169.729 121.021,169.471 120.861 C 169.198 120.692,169.126 120.754,169.288 121.016 C 169.741 121.750,170.748 121.118,170.316 120.371 C 169.850 119.566,167.969 117.795,167.188 117.427 C 166.865 117.276,166.997 117.445,167.480 117.803 M157.715 119.953 C 157.339 120.172,157.031 120.592,157.031 120.885 C 157.031 121.179,156.820 121.490,156.562 121.576 C 156.198 121.697,156.199 121.797,156.565 122.024 C 156.850 122.200,157.135 122.035,157.286 121.607 C 157.423 121.217,157.905 120.595,158.357 120.224 C 159.250 119.491,158.820 119.310,157.715 119.953 M155.559 122.656 C 155.559 123.408,155.640 123.716,155.738 123.340 C 155.836 122.964,155.836 122.349,155.738 121.973 C 155.640 121.597,155.559 121.904,155.559 122.656 M161.050 123.447 C 160.146 124.301,159.539 125.000,159.701 125.000 C 159.864 125.000,160.684 124.297,161.523 123.438 C 163.486 121.427,163.184 121.433,161.050 123.447 M165.738 127.260 C 165.764 130.852,165.789 131.005,165.910 128.339 C 165.988 126.630,166.237 125.009,166.463 124.736 C 166.758 124.380,166.710 124.076,166.291 123.657 C 165.774 123.140,165.712 123.548,165.738 127.260 M171.497 123.047 C 171.212 123.763,171.278 124.972,171.585 124.665 C 171.785 124.465,171.864 123.975,171.762 123.577 C 171.659 123.178,171.540 122.939,171.497 123.047 M156.641 124.242 C 156.641 124.469,156.470 124.550,156.261 124.421 C 155.675 124.059,155.378 125.879,155.846 126.962 C 156.219 127.825,156.241 127.776,156.053 126.510 C 155.833 125.040,156.430 124.380,157.813 124.564 C 158.333 124.633,158.333 124.597,157.813 124.241 C 157.055 123.723,156.641 123.723,156.641 124.242 M171.366 127.107 C 171.206 127.513,171.167 127.938,171.280 128.051 C 171.636 128.407,171.950 127.823,171.800 127.081 C 171.664 126.402,171.643 126.403,171.366 127.107 M157.910 128.742 C 158.286 129.188,158.605 129.804,158.619 130.109 C 158.632 130.414,158.812 130.243,159.018 129.728 C 159.223 129.214,159.300 128.701,159.188 128.589 C 159.076 128.477,158.984 128.618,158.984 128.902 C 158.984 129.262,158.719 129.193,158.105 128.674 C 157.227 127.930,157.227 127.931,157.910 128.742 M156.015 129.004 C 155.861 129.272,155.881 129.359,156.061 129.196 C 156.240 129.033,156.840 129.296,157.393 129.782 L 158.398 130.664 157.451 129.590 C 156.359 128.351,156.385 128.361,156.015 129.004 M170.584 129.888 C 170.227 130.637,170.015 131.250,170.113 131.250 C 170.381 131.250,171.567 128.858,171.388 128.680 C 171.303 128.595,170.941 129.138,170.584 129.888 M159.151 131.913 C 159.199 132.241,159.577 132.677,159.990 132.882 C 160.722 133.244,160.722 133.237,159.984 132.643 C 159.119 131.945,159.799 131.813,160.985 132.447 C 161.412 132.676,161.937 132.805,162.150 132.734 C 162.363 132.663,161.756 132.315,160.801 131.961 C 159.268 131.392,159.074 131.387,159.151 131.913 M233.390 135.254 L 229.883 138.867 233.496 135.360 C 236.852 132.102,237.287 131.641,237.004 131.641 C 236.945 131.641,235.319 133.267,233.390 135.254 M162.777 133.203 C 162.599 133.886,162.765 133.984,164.099 133.984 C 164.938 133.984,165.625 133.839,165.625 133.661 C 165.625 133.484,165.098 133.416,164.453 133.510 C 163.786 133.608,163.281 133.506,163.281 133.272 C 163.281 133.047,163.853 132.791,164.551 132.704 L 165.820 132.547 164.401 132.484 C 163.281 132.435,162.939 132.586,162.777 133.203 M164.830 147.559 L 162.695 149.805 164.941 147.670 C 167.028 145.686,167.366 145.313,167.076 145.313 C 167.015 145.313,166.005 146.323,164.830 147.559 M160.916 151.465 L 159.570 152.930 161.035 151.584 C 161.841 150.843,162.500 150.184,162.500 150.119 C 162.500 149.820,162.169 150.101,160.916 151.465 M232.219 191.992 C 232.219 214.336,232.267 223.419,232.324 212.177 C 232.382 200.935,232.382 182.654,232.324 171.552 C 232.267 160.450,232.219 169.648,232.219 191.992 M157.593 154.785 L 156.445 156.055 157.715 154.907 C 158.898 153.838,159.164 153.516,158.862 153.516 C 158.795 153.516,158.224 154.087,157.593 154.785 M153.125 159.180 C 151.524 160.791,150.303 162.109,150.410 162.109 C 150.518 162.109,151.915 160.791,153.516 159.180 C 155.116 157.568,156.338 156.250,156.230 156.250 C 156.123 156.250,154.726 157.568,153.125 159.180 M146.875 165.430 C 145.274 167.041,144.053 168.359,144.160 168.359 C 144.268 168.359,145.665 167.041,147.266 165.430 C 148.866 163.818,150.088 162.500,149.980 162.500 C 149.873 162.500,148.476 163.818,146.875 165.430 M142.166 170.215 L 140.820 171.680 142.285 170.334 C 143.091 169.593,143.750 168.934,143.750 168.869 C 143.750 168.570,143.419 168.851,142.166 170.215 M138.843 173.535 L 137.695 174.805 138.965 173.657 C 139.663 173.026,140.234 172.455,140.234 172.388 C 140.234 172.086,139.912 172.352,138.843 173.535 M194.318 174.316 L 192.773 175.977 194.434 174.432 C 195.978 172.996,196.273 172.656,195.978 172.656 C 195.914 172.656,195.167 173.403,194.318 174.316 M132.416 179.980 L 127.930 184.570 132.520 180.084 C 136.783 175.918,137.287 175.391,137.005 175.391 C 136.948 175.391,134.883 177.456,132.416 179.980 M154.468 179.785 L 153.320 181.055 154.590 179.907 C 155.773 178.838,156.039 178.516,155.737 178.516 C 155.670 178.516,155.099 179.087,154.468 179.785 M138.279 195.996 L 124.023 210.352 138.379 196.096 C 146.274 188.255,152.734 181.795,152.734 181.740 C 152.734 181.465,151.529 182.654,138.279 195.996 M126.343 186.035 L 125.195 187.305 126.465 186.157 C 127.648 185.088,127.914 184.766,127.612 184.766 C 127.545 184.766,126.974 185.337,126.343 186.035 M186.053 186.228 C 187.728 186.302,190.365 186.301,191.912 186.227 C 193.460 186.153,192.090 186.093,188.867 186.094 C 185.645 186.094,184.378 186.155,186.053 186.228 M179.089 211.328 C 179.089 223.682,179.139 228.735,179.199 222.559 C 179.259 216.382,179.259 206.274,179.199 200.098 C 179.139 193.921,179.089 198.975,179.089 211.328 M205.567 198.242 C 205.572 199.102,205.652 199.407,205.745 198.921 C 205.838 198.435,205.835 197.732,205.737 197.359 C 205.639 196.985,205.563 197.383,205.567 198.242 M205.575 207.813 C 205.575 208.779,205.651 209.175,205.744 208.691 C 205.838 208.208,205.838 207.417,205.744 206.934 C 205.651 206.450,205.575 206.846,205.575 207.813 M122.747 213.672 C 122.747 214.424,122.827 214.731,122.926 214.355 C 123.024 213.979,123.024 213.364,122.926 212.988 C 122.827 212.612,122.747 212.920,122.747 213.672 M270.483 227.441 L 269.336 228.711 270.605 227.564 C 271.304 226.933,271.875 226.361,271.875 226.294 C 271.875 225.992,271.553 226.258,270.483 227.441 M165.008 266.992 C 165.008 271.289,165.065 273.100,165.135 271.017 C 165.205 268.934,165.205 265.418,165.135 263.204 C 165.066 260.991,165.008 262.695,165.008 266.992 M172.837 278.125 C 172.837 288.545,172.887 292.808,172.949 287.598 C 173.010 282.388,173.010 273.862,172.949 268.652 C 172.887 263.442,172.837 267.705,172.837 278.125 M225.879 260.436 C 226.470 260.526,227.437 260.526,228.027 260.436 C 228.618 260.347,228.135 260.273,226.953 260.273 C 225.771 260.273,225.288 260.347,225.879 260.436 M59.668 260.838 C 62.085 260.907,66.040 260.907,68.457 260.838 C 70.874 260.770,68.896 260.714,64.063 260.714 C 59.229 260.714,57.251 260.770,59.668 260.838 M78.987 260.836 C 80.428 260.911,82.889 260.912,84.456 260.837 C 86.023 260.763,84.844 260.702,81.836 260.701 C 78.828 260.700,77.546 260.761,78.987 260.836 M87.531 266.688 C 87.501 267.535,87.371 267.559,82.129 267.677 L 76.758 267.797 82.141 267.883 C 87.692 267.971,88.352 267.788,87.763 266.321 C 87.652 266.046,87.548 266.211,87.531 266.688 M58.124 267.869 C 59.907 267.942,62.719 267.941,64.374 267.868 C 66.029 267.795,64.570 267.736,61.133 267.736 C 57.695 267.737,56.341 267.796,58.124 267.869 M211.440 272.461 C 211.443 273.535,211.519 273.928,211.608 273.334 C 211.698 272.741,211.696 271.862,211.603 271.381 C 211.510 270.901,211.437 271.387,211.440 272.461 M276.306 275.586 C 276.307 277.305,276.376 277.959,276.458 277.040 C 276.541 276.122,276.540 274.715,276.456 273.915 C 276.372 273.115,276.304 273.867,276.306 275.586 M182.202 276.270 L 181.055 277.539 182.324 276.392 C 183.508 275.322,183.773 275.000,183.472 275.000 C 183.404 275.000,182.833 275.571,182.202 276.270 M122.369 278.405 C 122.962 278.495,123.841 278.493,124.322 278.400 C 124.802 278.307,124.316 278.234,123.242 278.237 C 122.168 278.240,121.775 278.316,122.369 278.405 M256.550 278.408 C 257.252 278.495,258.307 278.493,258.894 278.404 C 259.481 278.315,258.906 278.244,257.617 278.246 C 256.328 278.248,255.848 278.321,256.550 278.408 M104.395 279.566 C 104.771 279.664,105.386 279.664,105.762 279.566 C 106.138 279.468,105.830 279.388,105.078 279.388 C 104.326 279.388,104.019 279.468,104.395 279.566 M164.343 280.103 C 164.645 280.491,164.864 282.566,164.942 285.767 L 165.065 290.820 165.149 285.692 C 165.224 281.210,165.148 280.497,164.551 280.028 C 163.949 279.556,163.924 279.565,164.343 280.103 M98.608 282.520 L 97.461 283.789 98.730 282.642 C 99.914 281.572,100.180 281.250,99.878 281.250 C 99.811 281.250,99.239 281.821,98.608 282.520 M321.987 285.352 C 321.990 286.426,322.066 286.819,322.155 286.225 C 322.245 285.631,322.243 284.752,322.150 284.272 C 322.057 283.792,321.984 284.277,321.987 285.352 M329.856 293.750 C 329.856 299.014,329.912 301.167,329.979 298.535 C 330.047 295.903,330.047 291.597,329.979 288.965 C 329.912 286.333,329.856 288.486,329.856 293.750 M129.764 291.961 C 129.711 293.849,129.485 294.910,129.018 295.477 L 128.349 296.289 129.233 295.478 C 130.020 294.756,130.102 294.368,129.979 291.962 L 129.841 289.258 129.764 291.961 M297.011 299.219 C 297.011 301.045,297.079 301.792,297.161 300.879 C 297.243 299.966,297.243 298.472,297.161 297.559 C 297.079 296.646,297.011 297.393,297.011 299.219 M172.763 301.563 C 172.763 302.529,172.839 302.925,172.932 302.441 C 173.025 301.958,173.025 301.167,172.932 300.684 C 172.839 300.200,172.763 300.596,172.763 301.563 M69.629 303.021 C 70.649 303.102,72.319 303.102,73.340 303.021 C 74.360 302.941,73.525 302.875,71.484 302.875 C 69.443 302.875,68.608 302.941,69.629 303.021 M92.297 303.022 C 93.324 303.103,94.906 303.102,95.813 303.020 C 96.719 302.938,95.879 302.872,93.945 302.873 C 92.012 302.874,91.270 302.941,92.297 303.022 M132.141 303.022 C 133.168 303.103,134.750 303.102,135.656 303.020 C 136.563 302.938,135.723 302.872,133.789 302.873 C 131.855 302.874,131.114 302.941,132.141 303.022 M169.238 303.014 C 169.829 303.104,170.796 303.104,171.387 303.014 C 171.978 302.925,171.494 302.851,170.313 302.851 C 169.131 302.851,168.647 302.925,169.238 303.014 M267.491 303.021 C 268.410 303.103,269.816 303.102,270.616 303.018 C 271.416 302.934,270.664 302.867,268.945 302.868 C 267.227 302.870,266.572 302.938,267.491 303.021 M304.395 303.021 C 305.415 303.102,307.085 303.102,308.105 303.021 C 309.126 302.941,308.291 302.875,306.250 302.875 C 304.209 302.875,303.374 302.941,304.395 303.021 M324.328 303.022 C 325.355 303.103,326.937 303.102,327.844 303.020 C 328.750 302.938,327.910 302.872,325.977 302.873 C 324.043 302.874,323.301 302.941,324.328 303.022 M338.391 303.022 C 339.418 303.103,341.000 303.102,341.906 303.020 C 342.813 302.938,341.973 302.872,340.039 302.873 C 338.105 302.874,337.364 302.941,338.391 303.022 " stroke="none" fill="#74a480" fill-rule="evenodd"></path></g></svg>